<?xml version="1.0" encoding="utf-8"?>
<!-- Generator: Adobe Illustrator 24.3.0, SVG Export Plug-In . SVG Version: 6.00 Build 0)  -->
<svg version="1.1" id="Layer_1" xmlns="http://www.w3.org/2000/svg" xmlns:xlink="http://www.w3.org/1999/xlink" x="0px" y="0px"
	 viewBox="0 0 512 512" style="enable-background:new 0 0 512 512;" xml:space="preserve">
<style type="text/css">
	.st0{stroke:#FFFFFF;stroke-width:16;stroke-miterlimit:10;}
</style>
<path class="st0" d="M256,265.1c59.8,0,108.3-48.5,108.3-108.3S315.8,48.5,256,48.5S147.7,97,147.7,156.8S196.2,265.1,256,265.1
	 M256,301.2c-79.8,0-144.5-64.7-144.5-144.5S176.2,12.2,256,12.2s144.5,64.7,144.5,144.5S335.8,301.2,256,301.2 M436.6,481.7v-54.1
	c0-30-24.3-54.1-54.1-54.1H129.6c-30,0-54.1,24.3-54.1,54.1v54.1c0,10-8.1,18-18,18s-18-8.1-18-18v-54.1c0-49.9,40.4-90.2,90.2-90.2
	h252.8c49.9,0,90.2,40.4,90.2,90.2v54.1c0,10-8.1,18-18,18C444.7,499.8,436.6,491.7,436.6,481.7"/>
</svg>
