<?xml version="1.0" encoding="utf-8"?>
<!-- Generator: Adobe Illustrator 24.3.0, SVG Export Plug-In . SVG Version: 6.00 Build 0)  -->
<svg version="1.1" id="Layer_1" xmlns="http://www.w3.org/2000/svg" xmlns:xlink="http://www.w3.org/1999/xlink" x="0px" y="0px"
	 viewBox="0 0 512 512" style="enable-background:new 0 0 512 512;" xml:space="preserve">
<style type="text/css">
	.st0{stroke:#FFFFFF;stroke-width:21;stroke-miterlimit:10;}
</style>
<path class="st0" d="M200.4,28.3c16.1-9.3,35.9-9.3,52,0l155.5,90.2c16,9.3,25.8,26.4,25.8,44.9v68.1c0,12.3-9.9,22.2-22.2,22.2
	c-12.3,0-22.2-9.9-22.2-22.2l0,0v-46.6l-140.7,81.6v189.1c0,16.4-13.3,29.6-29.6,29.6c-5.2,0-10.4-1.4-14.9-4L44.8,388.9
	C28.8,379.6,19,362.5,19,344V163.4c0-18.5,9.8-35.5,25.8-44.9L200.4,28.3z M230.1,66.8c-2.3-1.3-5.1-1.3-7.4,0L85.5,146.3L226.4,228
	l140.9-81.7L230.1,66.8z M63.4,344c0,2.6,1.4,5.1,3.7,6.4l137,79.5V266.5L63.4,184.9V344z M384.2,453.2l34.8-36.5h-96.3
	c-12.3,0-22.2-9.9-22.2-22.2c0-12.3,9.9-22.2,22.2-22.2H419l-34.8-36.5c-8.5-8.9-8.1-23,0.8-31.4c8.9-8.5,23-8.1,31.4,0.8l70.4,74.1
	c8.2,8.6,8.2,22.1,0,30.6l-70.4,74.1c-8.5,8.9-22.5,9.2-31.4,0.8C376.1,476.1,375.8,462,384.2,453.2"/>
</svg>
