<?xml version="1.0" encoding="utf-8"?>
<!-- Generator: Adobe Illustrator 24.3.0, SVG Export Plug-In . SVG Version: 6.00 Build 0)  -->
<svg version="1.1" id="Layer_1" xmlns="http://www.w3.org/2000/svg" xmlns:xlink="http://www.w3.org/1999/xlink" x="0px" y="0px"
	 viewBox="0 0 512 512" style="enable-background:new 0 0 512 512;" xml:space="preserve">
<style type="text/css">
	.st0{fill:none;stroke:#000000;stroke-width:22;stroke-linecap:round;stroke-miterlimit:10;}
	.st1{fill:none;stroke:#000000;stroke-width:22;stroke-linecap:round;stroke-linejoin:round;}
</style>
<g>
	<path class="st0" d="M319.8,410.6c0,34.1-20,61.9-54.1,61.9H138.1c-34.1,0-54.1-27.7-54.1-61.9 M333.3,333.3
		c17.1,0,30.9,17.3,30.9,38.7l0,0c0,21.4-13.9,38.7-30.9,38.7H70.4c-17.1,0-30.9-17.3-30.9-38.7l0,0c0-21.4,13.9-38.7,30.9-38.7"/>
	<path class="st0" d="M341.1,333.3H181.9c-2,0-4,0.8-5.5,2.3l-25.9,25.9c-1.6,1.6-3.9,1.6-5.5,0l0,0l-25.9-25.9
		c-1.5-1.5-3.4-2.3-5.5-2.3H62.7c-12.8,0-23.2-10.4-23.2-23.2l0,0c0-12.8,10.4-23.2,23.2-23.2h278.4c12.8,0,23.2,10.4,23.2,23.2l0,0
		C364.3,322.9,353.9,333.3,341.1,333.3z M70.4,275.4v-0.2c0-53.1,43.5-81,96.7-81h69.6c53.1,0,96.7,28,96.7,81.2v-0.2 M241.5,116.8
		l7.2,61.8"/>
	<path class="st0" d="M256,472.5h134.6c16.2,0,29.7-12.5,30.9-28.7l34.6-327.2"/>
	<path class="st1" d="M364.3,116.8l15.4-61.9l45.5-15.4"/>
	<path class="st0" d="M225.1,116.8h247.5"/>
</g>
</svg>
