<?xml version="1.0" encoding="utf-8"?>
<!-- Generator: Adobe Illustrator 24.3.0, SVG Export Plug-In . SVG Version: 6.00 Build 0)  -->
<svg version="1.1" id="Layer_1" xmlns="http://www.w3.org/2000/svg" xmlns:xlink="http://www.w3.org/1999/xlink" x="0px" y="0px"
	 viewBox="0 0 512 512" style="enable-background:new 0 0 512 512;" xml:space="preserve">
<path d="M53.7,53.7v61.6L3.2,182.8v5.8c0,27.7,22.8,50.6,50.6,50.6v219.1h269.7V306.6h33.7v151.7h101.1V239.1
	c27.7,0,50.6-22.8,50.6-50.6v-5.8l-50.6-67.4V53.7H53.7z M87.5,87.5h337.1v16.9H87.5V87.5z M79,138H433l40.6,54.3
	c-1.9,7.3-7.4,13.2-15.3,13.2c-9.4,0-16.9-7.5-16.9-16.9h-33.7c0,9.4-7.5,16.9-16.9,16.9c-9.4,0-16.9-7.5-16.9-16.9h-33.7
	c0,9.4-7.5,16.9-16.9,16.9s-16.9-7.5-16.9-16.9h-33.7c0,9.4-7.5,16.9-16.9,16.9c-9.4,0-16.9-7.5-16.9-16.9h-33.7
	c0,9.4-7.5,16.9-16.9,16.9s-16.9-7.5-16.9-16.9H138c0,9.4-7.5,16.9-16.9,16.9s-16.9-7.5-16.9-16.9H70.6c0,9.4-7.5,16.9-16.9,16.9
	c-7.9,0-13.4-5.9-15.3-13.2L79,138z M87.5,226c8.9,8.1,20.8,13.2,33.7,13.2s24.8-5.1,33.7-13.2c8.9,8.1,20.8,13.2,33.7,13.2
	s24.8-5.1,33.7-13.2c8.9,8.1,20.8,13.2,33.7,13.2c12.9,0,24.8-5.1,33.7-13.2c8.9,8.1,20.8,13.2,33.7,13.2s24.8-5.1,33.7-13.2
	c8.9,8.1,20.8,13.2,33.7,13.2s24.8-5.1,33.7-13.2v198.6h-33.7V272.9H289.7v151.7H87.5V226z M121.2,272.9v118H256v-118H121.2z
	 M154.9,306.6h67.4v50.6h-67.4V306.6z"/>
</svg>
