<?xml version="1.0" encoding="utf-8"?>
<!-- Generator: Adobe Illustrator 24.3.0, SVG Export Plug-In . SVG Version: 6.00 Build 0)  -->
<svg version="1.1" id="Grocery" xmlns="http://www.w3.org/2000/svg" xmlns:xlink="http://www.w3.org/1999/xlink" x="0px" y="0px"
	 viewBox="0 0 512 512" style="enable-background:new 0 0 512 512;" xml:space="preserve">
<style type="text/css">
	.st0{stroke:#FFFFFF;stroke-width:7;stroke-miterlimit:10;}
</style>
<g id="Grocery-2">
	<path class="st0" d="M399.7,487.2H130.4c-0.8-0.3-1.7-0.6-2.6-0.8c-17.8-3.8-30.5-17.6-32.6-35.9c-4.2-39.6-8.5-79.3-12.6-118.9
		c-3.8-35.4-7.4-71-11.3-106.4c-1.3-12,0.2-15.1,11-20.3c-0.7-1.3-1.4-2.6-2.1-3.9c-9.5-16.5-19.4-32.9-28.5-49.6
		c-15.6-28.9-8.1-64.8,17.7-85c25.7-20.3,62.4-19.5,86.6,2.6c5.8,5.3,10.7,11.9,14.9,18.5c8.9,14.3,17,29.1,25.4,43.6
		c5.3-2.9,10.1-5.9,15.3-8.2c5.4-2.4,10.9-4.2,16.6-5.5c3.9-0.8,5.4-2.2,5.9-6.1c4.2-28.1,26.5-48.4,55-50.4
		c1.8-0.3,3.3-1.3,4.2-2.8c11.4-21.5,29.2-33.2,53.4-33.1c24.2,0.2,41.6,12.1,52.4,33.7c1.1,2.3,2.2,2.9,4.8,2.6
		c26-2.7,50.9,12.8,60.4,37.4c9.4,24.5,1.4,52.1-19.5,67.9c-1.3,0.9-2.6,1.9-3.9,2.9c6.5,10.2,9.7,22.2,9.2,34.3
		c0.1,1.4,0.8,2.6,2,3.4c5.7,3.5,7.6,8.7,6.8,15c-2.3,21-4.6,42.2-6.8,63.3c-5.8,54.9-11.5,109.8-17.4,164.7
		c-1.8,17.1-11.2,28.9-27.3,35C404.9,485.9,402.3,486.4,399.7,487.2z M100.4,239.9c0.1,2.5,0.2,4.2,0.4,6
		c1.4,12.7,2.9,25.4,4.2,38.1c5.8,54.3,11.5,108.6,17.3,162.9c0.9,8.2,6.1,13.1,14.5,13.1c85.5,0,171.1,0,256.5,0h0.9
		c7.5-0.3,12.8-5.1,13.6-12.5c3-28.1,6.1-56.2,9-84.3c3.5-33,7-66.2,10.5-99.2c0.8-7.9,1.6-15.8,2.4-24.1
		C319.8,278.1,210.4,278.1,100.4,239.9z M327.5,170.7c6-12.9,12.5-36.5,14.2-51.5c1-8.6,7.5-14.1,15.2-13.2
		c7.9,1,12.9,8.1,11.6,16.9c-5.1,35.3-17.4,67.6-36.4,97.7c-3.1,5-5.2,10.7-8,16.5c1.4,0,2,0.1,2.6,0c31-4.2,61.5-11.5,91-22.1
		c1.5-0.6,3-2.5,3.5-4.2c4.6-12.6,0.5-26.3-10.6-35.1c-3.6-2.9-6.3-6-6.6-10.8c-0.6-7.8,3.7-12.6,12.6-14.9
		c17.9-4.3,28.4-22.1,23.3-39.6c-5-16.7-22.5-26.3-39.2-21.3c-0.7,0.2-1.4,0.5-2.1,0.7c-12.1,4.4-19.1,0.4-21.4-12.2
		c-3-17.1-19.2-28.5-36.3-25.6c-12.2,2.1-22,11.2-25,23.2c-3.1,11.8-7.6,14.8-19.5,12.8c-17-2.8-34.3,10.8-35.2,27.8
		C292.5,122.4,314.6,140.5,327.5,170.7z M158.5,119.3c-5.2-8.7-9.4-16.8-14.7-24.2c-7.5-10.4-18.2-15.8-30.9-16.1
		c-15.5-0.4-27.9,6.1-36,19.3c-8.3,13.6-8.4,27.8-0.6,41.6c14.5,25.4,29.1,50.6,43.8,75.8c1.1,1.7,2.8,3,4.7,3.6
		c26.5,8.7,53.7,14.8,81.3,18.4c6.9,0.9,13.8,1.5,21.1,2.2c-0.2-0.7-0.4-1.4-0.6-2.1c-8.2-14.4-16.4-28.8-24.8-43
		c-1-1.3-2.6-2-4.2-2.1c-7.7,0.3-15.3,0.9-23,1.3c-9.1,0.6-18.4,1.2-27.5,1.3c-6.6,0.1-11.7-4.8-12.8-11.2c-1-5.9,2.5-12.5,8.2-14.6
		c2.6-0.8,5.3-1.2,7.9-1.3c11.4-0.7,22.7-1.4,34.9-2.1c-2.7-4.6-5.4-8.4-7.1-12.6c-2.8-7.2-7.6-8.3-14.7-7.6
		c-14,1.5-28.2,1.9-42.4,2.6c-7.4,0.5-13.7-5.2-14.1-12.5c-0.4-5.6,2.9-10.9,8.1-13.1c2.7-0.9,5.5-1.4,8.4-1.5
		C134.7,120.6,145.9,120.1,158.5,119.3z M210.6,154.9c0.1,0.5,0.2,0.9,0.3,1.3c16,27.8,32,55.5,48.1,83.1c0.9,1.2,2.4,1.9,3.9,2
		c7.9,0,16-0.2,23.9-0.6c2-0.2,3.9-1.1,5.3-2.6c8.3-9.5,13-21.6,13.6-34.1c1.8-31.5-21.7-58.7-53.1-61.5
		C236.9,140.7,222.9,145.3,210.6,154.9z"/>
	<path class="st0" d="M264.6,410.4H177c-10.6,0-15.9-5.2-15.9-15.7c0-22.7,0-45.4,0-68.2c0-10.2,5.4-15.5,15.6-15.5h176.5
		c10.2,0,15.6,5.3,15.7,15.5c0,22.9,0,45.8,0,68.7c0,9.8-5.4,15.2-15.4,15.2C323.8,410.4,294.2,410.4,264.6,410.4z M341.6,338.4
		h-153V383h153V338.4z"/>
</g>
</svg>
