<?xml version="1.0" standalone="no"?>
<!DOCTYPE svg PUBLIC "-//W3C//DTD SVG 20010904//EN"
"https://convertio.co/download/122ef50f2473b381d2a09b05713bf0f816c218/"
 "http://www.w3.org/TR/2001/REC-SVG-20010904/DTD/svg10.dtd">

<svg version="1.0" xmlns="http://www.w3.org/2000/svg"
 width="48.000000pt" height="48.000000pt" viewBox="0 0 48.000000 48.000000"
 preserveAspectRatio="xMidYMid meet">

<g transform="translate(0.000000,48.000000) scale(0.100000,-0.100000)"
fill="#ffffff" stroke="none">
<path d="M96 414 c-9 -8 -16 -31 -16 -50 0 -19 -4 -34 -10 -34 -5 0 -10 -18
-10 -40 0 -22 5 -40 10 -40 6 0 10 -33 10 -80 0 -44 4 -80 9 -80 5 0 11 -9 14
-20 7 -27 47 -27 54 0 5 18 14 20 83 20 69 0 78 -2 83 -20 7 -27 47 -27 54 0
3 11 9 20 14 20 5 0 9 36 9 80 0 47 4 80 10 80 6 0 10 18 10 40 0 22 -4 40
-10 40 -5 0 -10 15 -10 34 0 60 -15 66 -160 66 -104 0 -132 -3 -144 -16z m264
-94 l0 -70 -120 0 -120 0 0 70 0 70 120 0 120 0 0 -70z m0 -150 l0 -40 -120 0
-120 0 0 40 0 40 120 0 120 0 0 -40z"/>
<path d="M140 170 c0 -17 7 -20 40 -20 33 0 40 3 40 20 0 17 -7 20 -40 20 -33
0 -40 -3 -40 -20z"/>
<path d="M260 170 c0 -17 7 -20 40 -20 33 0 40 3 40 20 0 17 -7 20 -40 20 -33
0 -40 -3 -40 -20z"/>
</g>
</svg>
